<?xml version="1.0" encoding="UTF-8"?>
<svg width="10px" height="19px" viewBox="0 0 10 19" version="1.1" xmlns="http://www.w3.org/2000/svg" xmlns:xlink="http://www.w3.org/1999/xlink">
    <!-- Generator: Sketch 50.2 (55047) - http://www.bohemiancoding.com/sketch -->
    <title>Facebook</title>
    <desc>Created with Sketch.</desc>
    <defs></defs>
    <g id="Page-1" stroke="none" stroke-width="1" fill="none" fill-rule="evenodd">
        <g id="UI–Kit" transform="translate(-1399.000000, -3659.000000)" fill="#3E4859">
            <g id="Group-4" transform="translate(0.000000, 2154.000000)">
                <g id="footer" transform="translate(0.000000, 1505.000000)">
                    <g id="bottom" transform="translate(778.000000, 0.000000)">
                        <g id="social-icons-(idle)" transform="translate(567.000000, 0.000000)">
                            <g id="Facebook" transform="translate(54.000000, 0.000000)">
                                <path d="M9.63,1 L7.23,0.99 C6.02847598,0.905329648 4.84927689,1.3458515 3.99756419,2.19756419 C3.1458515,3.04927689 2.70532965,4.22847598 2.79,5.43 L2.79,7.47 L0.37,7.47 C0.271293079,7.46807748 0.176060975,7.50644183 0.106251405,7.5762514 C0.0364418344,7.64606098 -0.001922521,7.74129308 -1.26458631e-16,7.84 L-1.26458631e-16,10.79 C-0.001922521,10.8887069 0.0364418344,10.983939 0.106251405,11.0537486 C0.176060975,11.1235582 0.271293079,11.1619225 0.37,11.16 L2.79,11.16 L2.79,18.63 C2.79321431,18.832999 2.95700096,18.9967857 3.16,19 L6.31,19 C6.5164561,19.0011386 6.68563363,18.8364131 6.69,18.63 L6.69,11.16 L9.51,11.16 C9.60977206,11.1624213 9.70631201,11.1245432 9.77781686,11.05492 C9.84932171,10.9852969 9.88976037,10.8898011 9.89,10.79 L9.89,7.84 C9.89003874,7.73908082 9.85055241,7.64215983 9.78,7.57 C9.70429126,7.5064136 9.60886303,7.47106981 9.51,7.47 L6.69,7.47 L6.69,5.74 C6.69,4.9 6.89,4.48 8.01,4.48 L9.63,4.48 C9.72821156,4.48026652 9.82247744,4.44137008 9.89192376,4.37192376 C9.96137008,4.30247744 10.0002665,4.20821156 10,4.11 L10,1.37 C10.0019225,1.27129308 9.96355817,1.17606098 9.8937486,1.1062514 C9.82393902,1.03644183 9.72870692,0.998077479 9.63,1 Z" id="Facebook_Logo"></path>
                            </g>
                        </g>
                    </g>
                </g>
            </g>
        </g>
    </g>
</svg>