<svg xmlns="http://www.w3.org/2000/svg" width="97" height="92" viewBox="0 0 97 92" fill="#2f80ed">
  <path id="icon_97x92_" data-name="icon (97x92)+" class="cls-1" d="M443.6,1808.62a30.7,30.7,0,0,0-13.8-21.69,30.189,30.189,0,0,0-16.337-4.79v2.89a27.3,27.3,0,0,1,14.8,4.34,27.754,27.754,0,0,1,12.5,19.64Zm-48.682,4.2-2.865-.04a21.535,21.535,0,0,0,5.464,14.59l0.055,0.06a22.9,22.9,0,0,0,9.555,5.99l0.821-2.77a19.988,19.988,0,0,1-8.322-5.23A18.677,18.677,0,0,1,394.921,1812.82Zm26.709-5.39a9.923,9.923,0,0,1,1.154,2.48l2.739-.84a12.635,12.635,0,0,0-12.058-8.98l0,2.89A9.851,9.851,0,0,1,421.63,1807.43Zm54.37-4.78H458l-2.78,8.71H447.9a34.741,34.741,0,1,0,0,2.88h7.324l2.78,8.71h18l-3.241-10.15Zm-65.94,28.43v5.03a23.609,23.609,0,0,1-14.594-38.33h1.973v-2.12a23.192,23.192,0,0,1,16.025-6.42,23.483,23.483,0,0,1,23.333,22.12h-6.224a17.311,17.311,0,1,0,0,2.88H436.8a23.483,23.483,0,0,1-23.333,22.12h-0.538v-5.28H410.06Zm8.158-16.84a4.984,4.984,0,0,1-4.754,3.57c-0.182,0-.361-0.02-0.538-0.03V1815h-2.865v1.44a4.982,4.982,0,1,1,8.157-5.08h-4.754v2.88h4.754Zm-4.754-9.33a7.89,7.89,0,1,0,7.7,9.33H427.7a14.368,14.368,0,0,1-14.232,12.98c-0.181,0-.359-0.01-0.538-0.02v-5.54H410.06v5.14a14.4,14.4,0,1,1,17.636-15.44h-6.535A7.854,7.854,0,0,0,413.464,1804.91Zm0-18.56a26,26,0,0,0-16.964,6.29h-1.926v1.82a26.337,26.337,0,1,0,45.094,19.78h5.361a31.75,31.75,0,0,1-31.565,30.41c-0.18,0-.359-0.01-0.538-0.01v-4.13H410.06v3.95a31.91,31.91,0,0,1-15.486-57.18v1.93h2.865v-3.85a31.22,31.22,0,0,1,16.025-4.41,31.75,31.75,0,0,1,31.565,30.41h-5.361A26.367,26.367,0,0,0,413.464,1786.35Zm56.6,19.19h2l-1.857,5.82h-2Zm-9.974,0h2l-1.858,5.82h-2Zm0,14.52-1.858-5.82h2.006l1.857,5.82h-2Zm5.015,0-1.858-5.82h1.95l1.857,5.82H465.1Zm0.092-8.7h-1.949l1.857-5.82h1.949Zm4.867,8.7-1.857-5.82h2l1.857,5.82h-2Zm-75.488-18.85h2.865v2.89h-2.865v-2.89Zm0-25.72h2.865v5.15h-2.865v-5.15Zm2.865-4.87h1.433v-2.89h-4.3v4.34h2.865v-1.45Zm5.213-2.89h5.671v2.89h-5.671v-2.89Zm9.452,0h5.671v2.89H412.1v-2.89Zm9.452,0h5.671v2.89h-5.671v-2.89Zm9.452,0h5.671v2.89h-5.671v-2.89Zm21.74,0h13.815v2.89H452.748v-2.89Zm0,10.34h9.97v2.88h-9.97v-2.88Zm0-4.96h7v2.88h-7v-2.88Zm-6.709.25a4.18,4.18,0,1,0-3.89-5.63h-1.688v2.89h1.688A4.151,4.151,0,0,0,446.039,1773.36Zm0-5.47a1.29,1.29,0,1,1-1.28,1.29A1.287,1.287,0,0,1,446.039,1767.89Zm0.456,80.75a4.151,4.151,0,0,0-3.89,2.74h-1.019v2.88h1.019A4.152,4.152,0,1,0,446.5,1848.64Zm0,5.47a1.29,1.29,0,1,1,1.281-1.29A1.287,1.287,0,0,1,446.5,1854.11Zm17.86-76.04h4.566v2.88h-4.566v-2.88Zm-11.015,69.3h13.815v2.89H453.34v-2.89Zm0,4.96h9.97v2.89h-9.97v-2.89Zm0-9.92h7v2.89h-7v-2.89Zm11.607,9.92h4.566v2.89h-4.566v-2.89Zm-52.021-2.4H410.06v4.33h4.3v-2.88h-1.433v-1.45Zm17.316,1.45h6.807v2.88h-6.807v-2.88Zm-11.345,0H425.7v2.88H418.9v-2.88Z" transform="translate(-379 -1765)"/>
</svg>
