<svg xmlns="http://www.w3.org/2000/svg" width="90" height="70" viewBox="0 0 90 70" fill="#2f80ed">
  <path id="icon" class="cls-1" d="M1319.6,1367.23a19.2,19.2,0,1,0-32.24-15.65,25.467,25.467,0,0,0-9.22-1.73,0.433,0.433,0,0,1-.05.01v-1.62l-13.08-13.12h-21.34v43.18a14.877,14.877,0,0,0,10.16,25.7h55.37A19.878,19.878,0,0,0,1319.6,1367.23Zm-13.14-30.55a16.563,16.563,0,0,1,10.61,29.22,19.6,19.6,0,0,0-7.87-1.63c-0.27,0-.53,0-0.79.01a19.478,19.478,0,0,0-6.58,1.41c-0.02-.06-0.05-0.11-0.07-0.16-0.07-.17-0.14-0.33-0.22-0.5a25.742,25.742,0,0,0-8.07-10.07c-0.06-.05-0.13-0.09-0.19-0.14-0.09-.07-0.18-0.13-0.27-0.19a24.38,24.38,0,0,0-3.04-1.88A16.539,16.539,0,0,1,1306.46,1336.68Zm-40.67,3.02,7.74,7.75h-7.74v-7.75Zm-19.44-1.9h16.77v12.33h11.23a0.048,0.048,0,0,1-.04.01l-0.54.09h-0.03a25.309,25.309,0,0,0-5.62,1.66h-18.4v2.68h13.61a25.945,25.945,0,0,0-5.44,5.23h-8.17v2.68h6.35a25.649,25.649,0,0,0-2.35,5.23h-4v2.68h3.3a0.292,0.292,0,0,0-.02.09c-0.01.05-.02,0.11-0.03,0.16-0.03.14-.06,0.28-0.08,0.42a1.286,1.286,0,0,1-.04.19c-0.02.14-.04,0.27-0.06,0.4l-0.03.21c-0.02.13-.04,0.26-0.05,0.39-0.01.07-.02,0.15-0.03,0.22-0.02.13-.03,0.26-0.05,0.39a1.5,1.5,0,0,1-.02.22c-0.01.14-.02,0.28-0.04,0.41,0,0.07-.01.14-0.01,0.21-0.02.18-.03,0.37-0.04,0.56v0.05c-0.03,0-.06.01-0.09,0.01-0.16.01-.32,0.03-0.47,0.05l-0.23.03c-0.16.03-.32,0.05-0.47,0.08-0.1.02-.2,0.03-0.3,0.05s-0.18.04-.26,0.06c-0.17.04-.34,0.07-0.5,0.12-0.06.01-.13,0.03-0.19,0.04-0.19.06-.38,0.11-0.57,0.17a0.88,0.88,0,0,0-.15.05c-0.11.03-.23,0.07-0.34,0.11-0.06.02-.13,0.05-0.19,0.07-0.16.06-.33,0.12-0.49,0.19-0.08.03-.16,0.07-0.25,0.1l-0.33.15c-0.12.05-.24,0.11-0.37,0.17l-0.18.09c-0.17.09-.33,0.17-0.49,0.26l-0.09.06a2.247,2.247,0,0,0-.21.12V1337.8h0Zm62.85,63.52h-55.37a12.2,12.2,0,0,1-7.78-21.56,0.865,0.865,0,0,0,.1-0.07c0.11-.1.23-0.19,0.35-0.28a1.063,1.063,0,0,1,.11-0.09c0.11-.08.22-0.16,0.34-0.24,0.04-.03.09-0.06,0.14-0.1,0.1-.06.21-0.13,0.31-0.2,0.06-.04.12-0.07,0.18-0.11,0.09-.05.18-0.11,0.28-0.16,0.07-.04.15-0.09,0.23-0.13,0.06-.03.13-0.07,0.19-0.1a11.9,11.9,0,0,1,1.81-.75,0.01,0.01,0,0,1,.01-0.01c0.15-.05.3-0.09,0.45-0.13l0.09-.03c0.14-.04.28-0.07,0.42-0.1l0.13-.03c0.13-.03.26-0.06,0.39-0.08a1.062,1.062,0,0,1,.19-0.04c0.11-.02.23-0.04,0.35-0.05l0.24-.03c0.11-.02.21-0.03,0.31-0.04s0.22-.02.33-0.02a1.942,1.942,0,0,1,.24-0.02c0.2-.01.39-0.02,0.58-0.02h1.34v-1.34c0-.19,0-0.39.01-0.58a1.275,1.275,0,0,1,.01-0.19c0-.13,0-0.26.01-0.39,0-.07.01-0.14,0.01-0.21,0.01-.13.02-0.25,0.03-0.37,0-.07.01-0.14,0.01-0.21,0.02-.12.03-0.24,0.04-0.36a1.492,1.492,0,0,1,.02-0.21c0.01-.12.03-0.25,0.04-0.37,0.01-.06.02-0.13,0.03-0.19,0.01-.13.03-0.25,0.05-0.38,0.01-.06.02-0.11,0.03-0.17,0.02-.13.04-0.27,0.06-0.4l0.03-.15c0.03-.14.05-0.28,0.08-0.42l0.03-.12c0.03-.15.06-0.3,0.09-0.44,0.01-.03.02-0.07,0.03-0.1,0.03-.15.07-0.31,0.11-0.47a0.142,0.142,0,0,1,.02-0.06c0.04-.17.08-0.34,0.13-0.5a0.035,0.035,0,0,1,.01-0.02,23.045,23.045,0,0,1,18.59-16.47,1.435,1.435,0,0,1,.22-0.04c0.1-.01.21-0.03,0.32-0.04,0.13-.02.26-0.03,0.39-0.05a0.875,0.875,0,0,0,.16-0.02c0.16-.01.32-0.03,0.48-0.04a0.148,0.148,0,0,0,.07-0.01l0.53-.03a0.227,0.227,0,0,0,.04-0.01l0.17-.01c0.37-.01.75-0.02,1.13-0.02a22.9,22.9,0,0,1,12.53,3.73,0.351,0.351,0,0,0,.08.05c0.18,0.12.36,0.25,0.54,0.37,0.13,0.09.25,0.18,0.38,0.27,0.09,0.07.18,0.14,0.27,0.2a23.467,23.467,0,0,1,6.97,8.56c0.04,0.09.09,0.18,0.13,0.27,0.05,0.11.1,0.23,0.15,0.35,0.1,0.21.19,0.43,0.28,0.64a1.8,1.8,0,0,0,.08.21c0.09,0.25.19,0.49,0.27,0.74l0.5,1.42,1.35-.66a17.044,17.044,0,0,1,7.53-1.74c0.15,0,.3,0,0.46.01h0.24a1.408,1.408,0,0,0,.2.01c0.11,0.01.22,0.02,0.33,0.02a0.41,0.41,0,0,0,.11.01c0.13,0.01.26,0.02,0.39,0.04h0.02A17.188,17.188,0,0,1,1309.2,1401.32Zm-55.37-6.8h55.37v2.69h-55.37v-2.69Zm55.37-24.65v2.68a11.579,11.579,0,0,1,11.54,11.58h2.68A14.259,14.259,0,0,0,1309.2,1369.87Zm-18.5-1.94,2.53-.89a16.027,16.027,0,0,0-15.09-10.71v2.68A13.341,13.341,0,0,1,1290.7,1367.93Zm9.94-22.96v16.52l16.47-8.26Zm2.67,4.34,7.82,3.92-7.82,3.92v-7.84Zm15.14,3.92h2.68a14.722,14.722,0,0,0-14.67-14.72v2.69A12.027,12.027,0,0,1,1318.45,1353.23Z" transform="translate(-1239 -1334)"/>
</svg>
