<svg xmlns="http://www.w3.org/2000/svg" width="90" height="85" viewBox="0 0 90 85" fill="#2f80ed">
  <path id="icon" class="cls-1" d="M387.178,1350.05H457.4v2.67H387.178v-2.67ZM409.16,1335H379v20.18h0V1420h90v-85H409.16Zm57.167,82.33H381.674v-59.47h84.653v59.47Zm0-62.15H381.674v-17.51h25.752l4.3,9.61h54.606v7.9h0Zm0-10.57H413.455l-3.1-6.94h55.972v6.94Zm-25.575-4.8H446.9v2.67h-6.149v-2.67Zm8.689,0h6.148v2.67h-6.148v-2.67Zm8.688,0h6.148v2.67h-6.148v-2.67Zm5.287,21.4H384.584V1376h78.832v-14.79h0Zm-76.159,12.12v-9.45h73.485v9.45H387.257Zm24.713,5.26H384.584v35.39H411.97v-35.39ZM409.3,1411.3h-22.04v-30.04H409.3v30.04h0Zm5.139,2.68h48.98v-35.39h-48.98v35.39Zm2.673-32.72h43.633v30.04H417.109v-30.04Zm25.381,10.58h14.717v2.67H442.49v-2.67Zm-6.336,6.88h21.053v2.67H436.154v-2.67Zm2.943,6.06h18.11v2.68H439.1v-2.68Zm-6.789,0h4.634v2.68h-4.634v-2.68ZM390.5,1385.5h12.832v2.68H390.5v-2.68Zm0,5.87h6v2.68h-6v-2.68Zm43.371-24.1H456.9v2.67H433.866v-2.67Zm-7.906,0h4.812v2.67H425.96v-2.67Z" transform="translate(-379 -1335)"/>
</svg>
