<svg xmlns="http://www.w3.org/2000/svg" width="90" height="90" viewBox="0 0 90 90" fill="#2f80ed">
  <path id="icon" class="cls-1" d="M883.548,1814.41L899,1794.82l-15.452-19.59H830.673a7.274,7.274,0,1,0-10.834,3.01v61.1H812.95v6.51H809V1855h30.042v-9.15h-3.95v-6.51H828.2v-24.93h55.346Zm-1.276-36.54,13.371,16.95-13.371,16.95H828.2v-33.52c0.169-.12.333-0.25,0.492-0.38h53.577Zm-45.865,70.62v3.87H811.634v-3.87h24.773Zm-3.95-6.51v3.87H815.585v-3.87h16.872Zm-9.983-2.98v-59.6s0.01,0.01.015,0.01l0.355,0.06s0.01,0.01.015,0.01a7.54,7.54,0,0,0,2.323,0c0.007,0,.013-0.01.02-0.01l0.35-.06s0.011-.01.016-0.01V1839h-3.094Zm4.723-63.33-0.105.09-0.1.09a0.985,0.985,0,0,1-.121.1c-0.059.05-.119,0.09-0.18,0.14a0.671,0.671,0,0,0-.1.07,0.956,0.956,0,0,0-.128.08l-0.106.06c-0.091.05-.183,0.1-0.278,0.15a0.09,0.09,0,0,1-.045.02l-0.127.06a0.612,0.612,0,0,1-.12.05c-0.036.02-.072,0.03-0.109,0.05l-0.163.06c-0.026.01-.051,0.01-0.077,0.02a4.761,4.761,0,0,1-.524.14,0.1,0.1,0,0,0-.053.01l-0.214.03c-0.024,0-.048.01-0.072,0.01-0.068.01-.137,0.01-0.2,0.02h-0.071a3.691,3.691,0,0,1-.543,0h-0.07c-0.069-.01-0.137-0.01-0.206-0.02-0.023,0-.047-0.01-0.071-0.01l-0.214-.03a0.1,0.1,0,0,0-.054-0.01,4.685,4.685,0,0,1-.523-0.14c-0.026-.01-0.051-0.01-0.077-0.02l-0.164-.06c-0.036-.02-0.072-0.03-0.108-0.05a0.6,0.6,0,0,1-.122-0.05c-0.042-.02-0.084-0.03-0.125-0.05l-0.054-.03A4.643,4.643,0,1,1,827.2,1775.67Zm39.078,3.96h3.091v2.63h-3.091v-2.63Zm15.991,5.32,2.067-1.63-2.912-3.69H872.75v2.63h7.395Zm6.34,11.7,2.067,1.63,2.731-3.46-4.142-5.25-2.067,1.63,2.852,3.62Zm-8.461,10.72h-8.426v2.64h9.7l3.169-4.02-2.067-1.63Zm-26.819,0h2.649v2.64h-2.649v-2.64Zm-3.974,0H832.593v-1.87h-2.634v4.51h19.393v-2.64Zm-16.759-25.11h3.075v-2.63h-5.709v9.81h2.634v-7.18Zm1.362,20.13a4.289,4.289,0,1,0,8.1-1.95l9.429-9.45a4.193,4.193,0,0,0,1.835.42,4.315,4.315,0,0,0,2.677-.94l11.028,7.2a4.213,4.213,0,0,0-.15,1.12,4.289,4.289,0,1,0,8.578,0,4.25,4.25,0,0,0-.39-1.78l4.941-4.54,0,3.57,2.635,0.01,0.011-8.09-8.071-.01,0,2.64,3.583,0.01-4.87,4.46a4.279,4.279,0,0,0-4.817.4l-11.015-7.19a4.365,4.365,0,0,0,.158-1.16,4.289,4.289,0,1,0-8.044,2.08l-9.372,9.38A4.29,4.29,0,0,0,833.955,1802.39Zm37.213-5.25a1.655,1.655,0,1,1-1.655,1.65A1.655,1.655,0,0,1,871.168,1797.14Zm-17.844-11.69a1.66,1.66,0,1,1-1.654,1.66A1.663,1.663,0,0,1,853.324,1785.45Zm-15.08,15.29a1.655,1.655,0,1,1-1.655,1.65A1.654,1.654,0,0,1,838.244,1800.74Z" transform="translate(-809 -1765)"/>
</svg>
