<svg xmlns="http://www.w3.org/2000/svg" width="90" height="85" viewBox="0 0 90 85" fill="#2f80ed">
  <path id="icon" class="cls-1" d="M817.178,1350.04H887.4v2.68H817.178v-2.68ZM839.16,1335H809v20.18h0v64.8h38.947l0.009,0.02,0.007-.02h12.072l0.007,0.02,0.009-.02H899V1335H839.16Zm8.443,77.86-2.546-5.52-5.411,2.76,3.529-10.18,3.6-.81-2.134,5.69,2.5,0.94,2.22-5.92,1.982,2.25Zm-5.719-22.52-6.431-2.77,3.574-6.03-3.574-6.02,6.431-2.78,0.654-6.97,6.833,1.53,4.629-5.25,4.629,5.25,6.833-1.53,0.654,6.97,6.431,2.78-3.574,6.03,3.574,6.02-6.431,2.78-0.654,6.97-3.846-.86-2.987-.67h0l-2.424,2.75-2.205,2.5-2.205-2.5-2.424-2.75h0l-2.987.67-3.846.86Zm7.006,26.97,4.483-12.93,0.627,0.71,0.627-.71,4.483,12.93H848.89Zm7.768-15.24,1.982-2.25,2.22,5.92,2.5-.94-2.134-5.69,3.6,0.81,3.53,10.18-5.412-2.76-2.546,5.52Zm39.669,15.24h-35.04l2.918-6.32,8.847,4.5-5.2-15.01,0.779-8.31,7.767-3.35-4.316-7.28,4.316-7.27-7.767-3.35-0.789-8.42-8.252,1.84L854,1358l-5.589,6.34-8.252-1.84-0.789,8.42-7.767,3.35,4.316,7.27-4.316,7.28,7.767,3.35,0.779,8.31-5.2,15.01,8.847-4.5,2.918,6.32H811.674v-59.46h84.653v59.46Zm0-62.13H811.674v-17.51h25.753l4.295,9.61h54.605v7.9Zm0-10.57H843.455l-3.1-6.94h55.972v6.94Zm-25.575-4.81H876.9v2.68h-6.149v-2.68Zm8.689,0h6.148v2.68h-6.148v-2.68Zm8.688,0h6.148v2.68h-6.148v-2.68Zm-19.876,41.74A14.253,14.253,0,1,0,854,1395.8,14.273,14.273,0,0,0,868.253,1381.54Zm-25.833,0A11.58,11.58,0,1,1,854,1393.12,11.6,11.6,0,0,1,842.42,1381.54Zm18.938,0h2.674A10.043,10.043,0,0,0,854,1371.51v2.68A7.364,7.364,0,0,1,861.358,1381.54Z" transform="translate(-809 -1335)"/>
</svg>
