<svg xmlns="http://www.w3.org/2000/svg" width="90" height="85" viewBox="0 0 90 85" fill="#2f80ed">
  <path id="icon" class="cls-1" d="M1247.18,1780.05h70.22v2.67h-70.22v-2.67Zm21.98-15.05H1239v20.18h0V1850h90v-85h-59.84Zm57.17,82.33h-84.66v-59.47h84.66v59.47Zm0-62.15h-84.66v-17.51h25.76l4.29,9.61h54.61v7.9h0Zm0-10.57h-52.88l-3.1-6.94h55.98v6.94Zm-25.58-4.8h6.15v2.67h-6.15v-2.67Zm8.69,0h6.15v2.67h-6.15v-2.67Zm8.69,0h6.15v2.67h-6.15v-2.67Zm5.29,21.4h-78.84V1806h78.84v-14.79h0Zm-76.16,12.12v-9.45h73.48v9.45h-73.48Zm31.6,5.26h-34.28v35.39h34.28v-35.39Zm-2.67,32.71h-28.93v-30.04h28.93v30.04h0Zm-25.7-25.8h12.84v2.68h-12.84v-2.68Zm0,5.87h6.01v2.68h-6.01v-2.68Zm43.38-24.1h23.03v2.67h-23.03v-2.67Zm-7.91,0h4.81v2.67h-4.81v-2.67Zm22.46,29.25a4.055,4.055,0,1,0-4.05,4.06A4.054,4.054,0,0,0,1308.42,1826.52Zm-5.43,0a1.38,1.38,0,1,1,1.38,1.38A1.383,1.383,0,0,1,1302.99,1826.52Zm1.38-8.99v-2.68a11.689,11.689,0,0,0-11.67,11.67h2.68A9,9,0,0,1,1304.37,1817.53Zm0,17.99v2.67a11.689,11.689,0,0,0,11.67-11.67h-2.68A9.005,9.005,0,0,1,1304.37,1835.52Zm8.03-9a8.03,8.03,0,1,0-8.03,8.03A8.036,8.036,0,0,0,1312.4,1826.52Zm-13.38,0a5.35,5.35,0,1,1,5.35,5.35A5.356,5.356,0,0,1,1299.02,1826.52Zm19.04-7.16,3.05-3.04-6.54-6.54-3.04,3.04a15.618,15.618,0,0,0-2.54-1.05v-4.3h-9.24v4.3a15.258,15.258,0,0,0-2.54,1.05l-3.04-3.04-6.54,6.54,3.05,3.04a15.3,15.3,0,0,0-1.06,2.54h-4.3v9.24h4.3a15.3,15.3,0,0,0,1.06,2.54l-3.05,3.04,6.54,6.54,3.04-3.04a15.258,15.258,0,0,0,2.54,1.05v4.3h9.24v-4.3a15.618,15.618,0,0,0,2.54-1.05l3.04,3.04,6.54-6.54-3.05-3.04a15.3,15.3,0,0,0,1.06-2.54h4.3v-9.24h-4.3A15.3,15.3,0,0,0,1318.06,1819.36Zm2.68,9.11h-3.7l-0.24,1.03a12.566,12.566,0,0,1-1.54,3.71l-0.55.9,2.61,2.61-2.75,2.76-2.62-2.62-0.9.55a12.566,12.566,0,0,1-3.71,1.54l-1.02.25v3.7h-3.9v-3.7l-1.03-.25a12.509,12.509,0,0,1-3.7-1.54l-0.9-.55-2.62,2.62-2.76-2.76,2.62-2.61-0.55-.9a12.566,12.566,0,0,1-1.54-3.71l-0.24-1.03H1288v-3.9h3.7l0.24-1.03a12.678,12.678,0,0,1,1.54-3.71l0.55-.89-2.62-2.62,2.76-2.76,2.62,2.62,0.9-.55a12.509,12.509,0,0,1,3.7-1.54l1.03-.25v-3.7h3.9v3.7l1.02,0.25a12.457,12.457,0,0,1,3.71,1.54l0.9,0.55,2.62-2.62,2.75,2.76-2.61,2.62,0.55,0.89a12.678,12.678,0,0,1,1.54,3.71l0.24,1.03h3.7v3.9h0Z" transform="translate(-1239 -1765)"/>
</svg>
