<?xml version="1.0" encoding="UTF-8"?>
<svg width="16px" height="16px" viewBox="0 0 16 16" version="1.1" xmlns="http://www.w3.org/2000/svg" xmlns:xlink="http://www.w3.org/1999/xlink">
    <!-- Generator: Sketch 50.2 (55047) - http://www.bohemiancoding.com/sketch -->
    <title>Instagram</title>
    <desc>Created with Sketch.</desc>
    <defs></defs>
    <g id="Page-1" stroke="none" stroke-width="1" fill="none" fill-rule="evenodd">
        <g id="UI–Kit" transform="translate(-1492.000000, -3661.000000)" fill="#3E4859">
            <g id="Group-4" transform="translate(0.000000, 2154.000000)">
                <g id="footer" transform="translate(0.000000, 1505.000000)">
                    <g id="bottom" transform="translate(778.000000, 0.000000)">
                        <g id="social-icons-(idle)" transform="translate(567.000000, 0.000000)">
                            <g id="Instagram" transform="translate(146.000000, 1.000000)">
                                <path d="M3.05,1 L14.95,1 C15.4978298,0.986124161 16.0273564,1.19764678 16.4148548,1.5851452 C16.8023532,1.97264362 17.0138758,2.50217018 17,3.05 L17,14.94 C17.0149218,15.4890391 16.8040702,16.0201834 16.4166437,16.4094998 C16.0292172,16.7988162 15.4991052,17.0122499 14.95,17 L3.05,17 C2.50089481,17.0122499 1.97078284,16.7988162 1.58335632,16.4094998 C1.19592981,16.0201834 0.985078203,15.4890391 1,14.94 L1,3.05 C0.986124161,2.50217018 1.19764678,1.97264362 1.5851452,1.5851452 C1.97264362,1.19764678 2.50217018,0.986124161 3.05,1 Z M12.66,2.77 C12.2630378,2.77164376 11.9416438,3.09303784 11.94,3.49 L11.94,5.22 C11.9416438,5.61696216 12.2630378,5.93835624 12.66,5.94 L14.46,5.94 C14.8569622,5.93835624 15.1783562,5.61696216 15.18,5.22 L15.18,3.49 C15.1783562,3.09303784 14.8569622,2.77164376 14.46,2.77 L12.66,2.77 Z M15.190013,7.76 L13.78,7.76 C13.9202188,8.20310745 13.9910562,8.66523725 13.99,9.13 C13.9136403,11.8226959 11.7087784,13.9659185 9.015,13.9659185 C6.32122157,13.9659185 4.11635973,11.8226959 4.04,9.13 C4.03894377,8.66523725 4.10978119,8.20310745 4.25,7.76 L2.77998697,7.76 L2.78,14.52 C2.77778014,14.8704812 3.05952727,15.1567005 3.41,15.16 L14.56,15.16 C14.9104727,15.1567005 15.1922199,14.8704812 15.19,14.52 L15.190013,7.76 Z M9.01,5.85 C7.30634535,5.9091599 5.96736695,7.32795065 6.00683417,9.03217522 C6.0463014,10.7363998 7.44952314,12.0916854 9.15409002,12.0719161 C10.8586569,12.0521468 12.2300687,10.6646815 12.23,8.96 C12.2165972,8.12020474 11.8695236,7.32027072 11.2653938,6.73677881 C10.6612639,6.15328691 9.84975389,5.8342163 9.01,5.85 Z" id="Instagram_Logo"></path>
                            </g>
                        </g>
                    </g>
                </g>
            </g>
        </g>
    </g>
</svg>