<?xml version="1.0" encoding="UTF-8"?>
<svg width="20px" height="16px" viewBox="0 0 20 16" version="1.1" xmlns="http://www.w3.org/2000/svg" xmlns:xlink="http://www.w3.org/1999/xlink">
    <!-- Generator: Sketch 50.2 (55047) - http://www.bohemiancoding.com/sketch -->
    <title>Twitter</title>
    <desc>Created with Sketch.</desc>
    <defs></defs>
    <g id="Page-1" stroke="none" stroke-width="1" fill="none" fill-rule="evenodd">
        <g id="UI–Kit" transform="translate(-1442.000000, -3661.000000)" fill="#3E4859">
            <g id="Group-4" transform="translate(0.000000, 2154.000000)">
                <g id="footer" transform="translate(0.000000, 1505.000000)">
                    <g id="bottom" transform="translate(778.000000, 0.000000)">
                        <g id="social-icons-(idle)" transform="translate(567.000000, 0.000000)">
                            <g id="Twitter" transform="translate(97.000000, 2.000000)">
                                <path d="M19.99,1.89 C19.2422395,2.21727712 18.4504507,2.43291322 17.64,2.53 C18.4942451,2.02916377 19.1347978,1.23203145 19.44,0.29 C18.6343766,0.76006267 17.755462,1.09134586 16.84,1.27 C16.0543681,0.456237428 14.9711152,-0.00233961045 13.84,9.09720975e-13 C12.7618831,-0.00932264497 11.7242238,0.410037491 10.9553159,1.16581768 C10.186408,1.92159788 9.74924272,2.95188237 9.74,4.03 C9.74025207,4.33993185 9.77717542,4.6487453 9.85,4.95 C6.56054818,4.80133744 3.48740792,3.26839986 1.39,0.73 C0.293688076,2.57885635 0.854543646,4.96359656 2.66,6.13 C2.00791305,6.11269341 1.36971967,5.93770491 0.8,5.62 L0.8,5.67 C0.812552481,7.60546837 2.18961108,9.2629614 4.09,9.63 C3.73905645,9.73153482 3.37533065,9.78205229 3.01,9.78 C2.75133127,9.77864214 2.49342316,9.75184649 2.24,9.7 C2.78694348,11.3574743 4.32478354,12.485759 6.07,12.51 C4.61166442,13.6343014 2.8214094,14.2427771 0.98,14.24 C0.652407907,14.2402511 0.325114713,14.2202128 -2.27373675e-13,14.18 C1.88070823,15.3729695 4.06284473,16.0043667 6.29,16 C9.36933732,16.0455256 12.3382709,14.8540496 14.5318477,12.6924272 C16.7254246,10.5308048 17.9603365,7.57967382 17.96,4.5 C17.96,4.33 17.96,4.15 17.95,3.98 C18.7486039,3.40987243 19.4393734,2.70217238 19.99,1.89 Z" id="Twitter_Logo"></path>
                            </g>
                        </g>
                    </g>
                </g>
            </g>
        </g>
    </g>
</svg>