<?xml version="1.0" encoding="UTF-8"?>
<svg width="20px" height="12px" viewBox="0 0 20 12" version="1.1" xmlns="http://www.w3.org/2000/svg" xmlns:xlink="http://www.w3.org/1999/xlink">
    <!-- Generator: Sketch 50.2 (55047) - http://www.bohemiancoding.com/sketch -->
    <title>Vkontakte</title>
    <desc>Created with Sketch.</desc>
    <defs></defs>
    <g id="Page-1" stroke="none" stroke-width="1" fill="none" fill-rule="evenodd">
        <g id="UI–Kit" transform="translate(-1346.000000, -3663.000000)" fill="#3E4859">
            <g id="Group-4" transform="translate(0.000000, 2154.000000)">
                <g id="footer" transform="translate(0.000000, 1505.000000)">
                    <g id="bottom" transform="translate(778.000000, 0.000000)">
                        <g id="social-icons-(idle)" transform="translate(567.000000, 0.000000)">
                            <g id="Vkontakte" transform="translate(0.000000, 4.000000)">
                                <path d="M20.14,9.35 C19.6957373,8.82641612 19.2251293,8.32576926 18.73,7.85 C18.56,7.69 18.38,7.51 18.21,7.34 C17.9906976,7.22070075 17.8448974,7.00034381 17.8208499,6.75185323 C17.7968025,6.50336265 17.8976431,6.25913725 18.09,6.1 C18.36,5.71 18.64,5.33 18.91,4.95 C19.16,4.61 19.42,4.26 19.66,3.91 L19.72,3.84 C20.2355014,3.1668902 20.6436702,2.41801864 20.93,1.62 C21.0382476,1.3558875 21.0309948,1.05852122 20.91,0.8 C20.7467294,0.571860748 20.4899146,0.428778226 20.21,0.41 C20.1044296,0.390561949 19.9973437,0.380522641 19.89,0.38 L16.79,0.38 C16.3463656,0.362396282 15.9488816,0.652228403 15.83,1.08 C15.66,1.52 15.47,2 15.25,2.45 C14.8087635,3.47025549 14.2153498,4.41769444 13.49,5.26 L13.46,5.29 C13.3958693,5.39267338 13.3015632,5.47300827 13.19,5.52 C13.1763909,5.51788697 13.1630024,5.51453984 13.15,5.51 C12.9678348,5.3400554 12.8691778,5.09889397 12.88,4.85 L12.88,1.11 C12.907566,0.560934128 12.5138111,0.0806396083 11.97,9.09917378e-13 L8.71,9.09917378e-13 C8.28289774,-0.00946887507 7.87868626,0.192636868 7.63,0.54 C7.49984813,0.671283563 7.44360728,0.858753057 7.48,1.04 C7.55957091,1.199148 7.71343635,1.30797965 7.89,1.33 C8.27757774,1.39036461 8.56736751,1.71795305 8.58,2.11 C8.69046862,2.96574815 8.70388708,3.83123858 8.62,4.69 C8.60669355,4.92227448 8.55952897,5.15135957 8.48,5.37 C8.45710511,5.44520001 8.4072505,5.5092988 8.34,5.55 C8.27368493,5.54074125 8.21131041,5.51301924 8.16,5.47 C7.90404462,5.2608279 7.68441866,5.01079219 7.51,4.73 C6.76304455,3.61571596 6.14255104,2.42168521 5.66,1.17 C5.52277367,0.717941588 5.11222048,0.403989147 4.64,0.39 C4.13,0.39 3.67,0.38 3.23,0.38 C2.74,0.38 2.3,0.39 1.86,0.4 C1.56093667,0.367071778 1.26713721,0.496801412 1.09,0.74 C0.949757096,1.01587034 0.961087269,1.34444538 1.12,1.61 C2.08236173,3.96694543 3.29604224,6.21326019 4.74,8.31 C5.46847026,9.40960149 6.42727564,10.3376978 7.55,11.03 C8.676994,11.6887508 9.96497168,12.0211322 11.27,11.99 C11.43,11.99 11.59,11.99 11.76,11.98 C12.0834247,12.0269173 12.4098535,11.9169486 12.6389595,11.6838924 C12.8680656,11.4508363 12.9724386,11.1225755 12.92,10.8 C12.9177774,10.3686304 13.0099308,9.9419946 13.19,9.55 C13.2242606,9.41950538 13.3358008,9.32389956 13.47,9.31 C13.5671359,9.31941242 13.6601674,9.35386853 13.74,9.41 C13.9071307,9.5378221 14.0612136,9.68185607 14.2,9.84 C14.32,9.97 14.43,10.11 14.55,10.25 C14.8,10.54 15.07,10.84 15.34,11.13 C15.8349881,11.7191822 16.5824763,12.0352842 17.35,11.98 L20.19,11.98 C20.4772096,11.9590738 20.7319881,11.7879539 20.86,11.53 C21.0417722,11.1814336 21.0380227,10.7652349 20.85,10.42 C20.6485724,10.0411646 20.410787,9.68281188 20.14,9.35 Z" id="vk_logo"></path>
                            </g>
                        </g>
                    </g>
                </g>
            </g>
        </g>
    </g>
</svg>